P3
4 4
255
0 0 0   0 0 36   4 0 37   0 0 0   
0 0 36   0 0 36   4 0 37   4 0 37   
4 0 37   4 0 37   0 0 36   0 0 36   
0 0 0   4 0 37   0 0 36   0 0 0   
